HIERARCHY
ROOT hip
{
	OFFSET 0.000000 0.000000 0.000000 
	CHANNELS 6 Xposition Yposition Zposition Xrotation Zrotation Yrotation
	JOINT abdomen
	{
		OFFSET 0.000000 3.402643 0.000000 
		CHANNELS 3 Xrotation Zrotation Yrotation
		JOINT chest
		{
			OFFSET 0.000000 8.438565 -0.680529 
			CHANNELS 3 Xrotation Zrotation Yrotation
			JOINT neck
			{
				OFFSET 0.000000 10.207942 -0.272212 
				CHANNELS 3 Xrotation Zrotation Yrotation
				JOINT head
				{
					OFFSET 0.000000 3.130431 0.000000 
					CHANNELS 3 Xrotation Zrotation Yrotation
					End Site
					{
						OFFSET 0.000000 3.130435 0.000000 
					}
				}
			}
			JOINT lCollar
			{
				OFFSET 3.470700 6.669187 -0.816635 
				CHANNELS 3 Yrotation Zrotation Xrotation
				JOINT lShldr
				{
					OFFSET 3.198488 0.000000 0.000000 
					CHANNELS 3 Zrotation Yrotation Xrotation
					JOINT lForeArm
					{
						OFFSET 10.139888 0.000000 0.000000 
						CHANNELS 3 Yrotation Zrotation Xrotation
						JOINT lHand
						{
							OFFSET 8.370511 0.000000 0.000000 
							CHANNELS 3 Zrotation Yrotation Xrotation
							End Site
							{
								OFFSET 4.083176 0.000000 0.000000 
							}
						}
					}
				}
			}
			JOINT rCollar
			{
				OFFSET -3.470700 6.669187 -0.816635 
				CHANNELS 3 Yrotation Zrotation Xrotation
				JOINT rShldr
				{
					OFFSET -3.198488 0.000000 0.000000 
					CHANNELS 3 Zrotation Yrotation Xrotation
					JOINT rForeArm
					{
						OFFSET -10.139888 0.000000 0.000000 
						CHANNELS 3 Yrotation Zrotation Xrotation
						JOINT rHand
						{
							OFFSET -8.370511 0.000000 0.000000 
							CHANNELS 3 Zrotation Yrotation Xrotation
							End Site
							{
								OFFSET -4.083176 0.000000 0.000000 
							}
						}
					}
				}
			}
		}
	}
	JOINT lThigh
	{
		OFFSET 5.308129 -1.633274 1.361059 
		CHANNELS 3 Xrotation Zrotation Yrotation
		JOINT lShin
		{
			OFFSET -2.041588 -20.007561 0.000000 
			CHANNELS 3 Xrotation Zrotation Yrotation
			JOINT lFoot
			{
				OFFSET 0.000000 -19.190928 -1.224953 
				CHANNELS 3 Xrotation Yrotation Zrotation
				End Site
				{
					OFFSET 0.000000 -2.449906 4.627600 
				}
			}
		}
	}
	JOINT rThigh
	{
		OFFSET -5.308129 -1.633274 1.361059 
		CHANNELS 3 Xrotation Zrotation Yrotation
		JOINT rShin
		{
			OFFSET 2.041588 -20.007561 0.000000 
			CHANNELS 3 Xrotation Zrotation Yrotation
			JOINT rFoot
			{
				OFFSET 0.000000 -19.190928 -1.224953 
				CHANNELS 3 Xrotation Yrotation Zrotation
				End Site
				{
					OFFSET 0.000000 -2.449906 4.627600 
				}
			}
		}
	}
}
MOTION
Frames: 18
Frame Time: 0.016667
-0.296237 43.194443 -2.550404 2.610200 -2.643740 0.484666 -15.373200 -3.824760 -5.587240 16.245100 -2.716910 -3.086490 -0.144305 -11.695500 11.918500 6.298480 -0.443928 5.959850 2.000000 -2.000000 0.000000 103.750000 175.401993 -4.648860 77.500504 -0.244439 0.133525 0.065629 -0.058966 -158.483994 -2.000000 2.000000 0.000000 76.938499 -13.926000 150.087006 -92.451599 0.209418 0.117078 -0.117611 0.127620 170.382996 -26.912020 1.319968 6.707960 51.940376 1.461656 3.673477 -10.847520 -14.763095 -3.256651 -22.771145 11.578840 4.211705 40.739979 -1.840617 -3.156446 -18.279680 -2.269079 -0.148415 
-0.463201 43.435059 -2.903428 3.560370 -3.235940 1.780960 -15.679900 -3.532100 -6.166360 15.797800 -2.033990 -3.356210 -1.377380 -12.171600 12.246100 5.702190 -0.764984 6.062380 2.000000 -2.000000 0.000000 105.469002 177.957993 -3.832650 79.434097 -0.239919 0.134446 0.065730 -0.059221 -158.582001 -2.000000 2.000000 0.000000 76.646400 -14.386100 150.602997 -92.832497 0.208575 0.117039 -0.118462 0.138029 170.001999 -28.987732 1.981903 5.566761 53.580925 1.344292 3.777890 -10.049603 -16.635736 -3.371109 -23.372068 11.426450 2.104356 38.662693 -1.852696 -3.067179 -17.129570 -1.376219 0.134857 
-0.612975 43.787174 -3.233802 4.413320 -3.661020 2.725400 -15.736500 -3.130860 -6.399610 15.672600 -1.303840 -3.472610 -2.097200 -12.373700 12.363700 5.379650 -0.910877 6.082720 2.000000 -2.000000 0.000000 107.362999 -178.733002 -2.848760 81.953697 -0.233986 0.135418 0.065710 -0.059170 -158.561996 -2.000000 2.000000 0.000000 76.246498 -14.240400 151.014008 -92.695702 0.208878 0.117054 -0.119382 0.128950 169.591995 -29.748199 2.348426 5.294569 55.073555 1.222028 3.850451 -12.121266 -16.025354 -3.909716 -23.491495 11.252435 0.511796 35.956463 -1.884921 -2.939677 -15.574797 -0.339988 0.431879 
-0.721945 44.202934 -3.531376 5.129460 -3.958740 3.540910 -15.282000 -2.900570 -6.730900 16.132401 -0.788659 -3.640160 -1.475040 -12.422900 12.415400 5.858320 -0.853087 6.116060 2.000000 -2.000000 0.000000 110.115997 -172.854996 -2.717370 82.510300 -0.232670 0.135597 0.065251 -0.057999 -158.113007 -2.000000 2.000000 0.000000 76.498596 -11.876200 150.559998 -90.889099 0.212879 0.117179 -0.118527 0.128312 169.973007 -29.264091 2.514191 5.778700 57.221451 1.100202 3.943061 -14.577546 -12.399520 -3.722235 -23.196556 11.035682 -0.686158 32.876011 -1.908252 -2.757632 -13.535757 0.323237 0.551333 
-0.796657 44.579102 -3.853932 6.306250 -4.222440 4.103950 -15.680000 -2.739730 -6.995970 15.839800 -0.301709 -3.773930 -1.946770 -12.020700 12.600400 5.536110 -0.793990 6.210300 2.000000 -2.000000 0.000000 112.732002 -168.723007 -2.932250 83.272003 -0.230867 0.135822 0.064859 -0.056977 -157.722000 -2.000000 2.000000 0.000000 76.352501 -11.623100 150.970001 -90.127403 0.214567 0.117194 -0.118309 0.128148 170.070999 -28.377228 2.570507 6.680789 59.399551 0.947777 4.039271 -12.887136 -9.430260 -2.654369 -23.483461 10.810713 -1.693348 29.945953 -1.891467 -2.627457 -12.037044 1.017018 0.622227 
-0.844653 44.810570 -4.198328 7.866820 -4.556510 4.819990 -16.116400 -2.551650 -7.272530 15.634800 0.029189 -3.889230 -2.861730 -12.329200 12.856800 5.213430 -1.017990 6.278410 2.000000 -2.000000 0.000000 114.966003 -164.690002 -3.215860 83.691902 -0.229871 0.135936 0.063560 -0.053434 -156.375000 -2.000000 2.000000 0.000000 75.933296 -11.848900 151.496994 -90.508202 0.213723 0.117189 -0.119492 0.129031 169.542999 -27.437042 2.428236 7.404474 61.018002 0.842379 4.107802 -8.787224 -6.226065 -1.388638 -24.457724 10.524563 -2.978982 27.568020 -1.819571 -2.520283 -10.531112 2.206992 0.807626 
-0.819424 44.938538 -4.505719 8.807820 -4.593860 5.441270 -15.875300 -2.315680 -7.420210 15.966800 0.233623 -3.954300 -3.524270 -12.356400 13.039500 5.233060 -0.959444 6.289080 2.000000 -2.000000 0.000000 116.992996 -159.619995 -3.848880 83.477097 -0.230381 0.135878 0.051930 -0.047830 -154.264999 -2.000000 2.000000 0.000000 75.483101 -10.549100 151.080002 -90.527802 0.213680 0.117189 -0.119889 0.129323 169.367004 -25.102018 1.689987 8.033537 60.918602 0.880283 4.095132 -5.220395 -3.101662 -0.575854 -25.304924 9.906066 -4.339629 26.523067 -1.768881 -2.495124 -9.644680 2.984094 0.868307 
-0.728360 44.900600 -4.816626 9.334570 -4.413660 5.388430 -15.820600 -2.234570 -7.341260 15.898400 0.330935 -3.913680 -4.584260 -12.755800 13.579200 5.008030 -1.183630 6.464710 2.000000 -2.000000 0.000000 118.093002 -156.151001 -4.735700 82.978996 -0.231561 0.135738 0.050010 -0.041183 -151.794998 -2.000000 2.000000 0.000000 75.013901 -10.216600 150.837006 -91.230904 0.212122 0.117165 -0.121661 0.130606 168.585999 -21.802700 0.611184 8.772840 58.275681 1.136904 3.942834 -3.318918 -0.839093 -0.230110 -26.276768 9.425368 -4.617108 26.730299 -1.757492 -2.517039 -9.560925 3.555754 0.967012 
-0.603315 44.756302 -5.198026 10.190500 -4.671560 5.635460 -15.900700 -2.040780 -7.518910 15.751800 0.418446 -3.980480 -5.443020 -13.315400 14.160300 4.890390 -1.437300 6.658540 2.000000 -2.000000 0.000000 118.695000 -152.729996 -5.928990 81.328697 -0.235462 0.135201 0.048153 -0.033418 -148.942993 -2.000000 2.000000 0.000000 74.027496 -9.835790 150.856995 -92.012100 0.210391 0.117116 -0.124194 0.132376 167.483002 -18.498611 -0.495689 8.253426 52.326485 1.546462 3.633526 -3.209524 -0.079383 -0.201580 -28.251949 9.231503 -4.853099 27.949717 -1.724816 -2.606471 -9.508301 3.534334 0.943748 
-0.469037 44.514160 -5.646952 11.641500 -4.715870 5.913630 -16.215300 -1.998070 -7.880860 15.614900 0.651865 -4.157920 -6.169420 -13.619800 14.959800 4.802120 -1.642210 6.970410 2.000000 -2.000000 0.000000 118.779999 -150.647003 -7.271960 80.088402 -0.238382 0.134724 0.047124 -0.028158 -147.029007 -2.000000 2.000000 0.000000 72.768097 -9.211830 151.356995 -92.490700 0.209332 0.117074 -0.126646 0.134022 166.427994 -16.035046 -1.832321 7.124525 44.499580 1.984472 3.212914 -9.283836 -3.573135 -1.105128 -31.509060 8.742131 -4.666254 30.376925 -1.672608 -2.785696 -9.232514 3.226770 0.863518 
-0.404968 44.313923 -6.128669 13.472500 -4.093560 5.777750 -16.811899 -2.212280 -8.039900 15.282200 1.118290 -4.273130 -6.780870 -13.597100 15.551400 4.694490 -1.739680 7.226220 2.000000 -2.000000 0.000000 118.925003 -149.863998 -7.675480 79.102097 -0.240697 0.134299 0.046858 -0.026622 -146.473007 -2.000000 2.000000 0.000000 71.528603 -8.881360 152.098999 -92.900803 0.208424 0.117031 -0.129174 0.135652 165.354004 -15.041586 -3.417718 6.474110 37.881927 2.196939 2.867722 -13.173621 -5.629273 -2.061937 -35.936882 8.073617 -3.049993 34.467590 -1.621057 -3.015558 -8.249970 2.399752 0.662604 
-0.409277 44.180435 -6.534873 14.771400 -2.596920 6.502840 -17.059601 -2.869250 -8.495250 15.163800 1.643090 -4.608150 -7.615860 -13.519000 16.297001 4.577080 -1.837130 7.512010 2.000000 -2.000000 0.000000 119.686996 -149.580002 -8.045900 78.184097 -0.242845 0.133868 0.047528 -0.030336 -147.820007 -2.000000 2.000000 0.000000 71.119003 -8.375020 152.794006 -93.340302 0.207452 0.116979 -0.130263 0.136334 164.895004 -14.637368 -5.602076 6.577811 33.693958 2.218723 2.670943 -14.971456 -5.006706 -2.142821 -40.072556 6.533731 -0.987248 39.556759 -1.533939 -3.276472 -6.838045 0.747717 0.335877 
-0.451907 44.117027 -6.782915 14.948400 -1.736100 8.081410 -16.960199 -3.339050 -9.035190 15.056100 1.740000 -4.933080 -8.631100 -13.351300 16.652201 4.225310 -1.846250 7.620900 2.000000 -2.000000 0.000000 119.266998 -149.748001 -7.167390 75.830597 -0.248316 0.132606 0.047738 -0.031409 -148.210999 -2.000000 2.000000 0.000000 71.168198 -8.707460 152.988998 -94.062897 0.205854 0.116875 -0.129892 0.136103 165.050995 -14.175296 -6.742622 6.695841 31.888357 2.217726 2.561955 -15.289425 -5.058632 -2.220793 -42.323105 5.389232 0.229407 43.999298 -1.399598 -3.495946 -8.191308 -0.679602 0.060851 
-0.438494 44.143517 -6.793588 14.420300 -1.664630 9.493810 -16.834400 -3.361780 -9.181340 14.891000 1.331360 -4.975780 -8.835100 -13.693200 16.508101 4.029820 -1.884920 7.549050 2.000000 -2.000000 0.000000 116.788002 -150.906006 -4.977610 72.363800 -0.256271 0.130341 0.047627 -0.030846 -148.005997 -2.000000 2.000000 0.000000 71.451103 -9.839010 152.389999 -94.639099 0.204581 0.116778 -0.129938 0.136132 165.031006 -13.589399 -6.776152 6.710283 31.748133 2.245291 2.533271 -14.563582 -5.520243 -2.306803 -42.401035 5.113651 0.449699 47.178185 -1.260510 -3.670040 -12.372868 -0.113670 0.149157 
-0.432185 44.212967 -6.591862 13.743900 -1.318570 10.429300 -16.782101 -3.271000 -9.075910 14.920900 1.049590 -4.898470 -7.811260 -14.467800 16.522301 4.313080 -1.934300 7.607830 2.000000 -2.000000 0.000000 113.050003 -153.294998 -2.453700 67.959503 -0.266154 0.126776 0.048373 -0.034433 -149.313995 -2.000000 2.000000 0.000000 71.792397 -10.901700 151.548004 -94.726997 0.204387 0.116763 -0.130287 0.136348 164.884995 -13.249306 -6.921342 6.770756 33.013050 2.254916 2.597562 -13.241320 -6.252727 -2.411559 -41.216881 5.020785 0.278071 48.893490 -1.200312 -3.743054 -11.772680 1.265114 0.526355 
-0.460002 44.234703 -6.156888 13.068500 -1.027380 11.177400 -16.769600 -3.184670 -8.785670 15.273100 0.632069 -4.716650 -7.282140 -14.981500 16.177500 4.244440 -2.061120 7.502190 2.000000 -2.000000 0.000000 109.158997 -157.509995 -0.061149 63.477100 -0.275901 0.122380 0.049483 -0.039145 -151.042999 -2.000000 2.000000 0.000000 72.533501 -12.051300 150.246994 -94.765999 0.204301 0.116755 -0.131639 0.137178 164.319000 -13.851402 -6.695412 7.349928 36.795872 2.176230 2.835604 -11.783223 -6.084393 -2.133274 -38.852200 5.148652 -0.183652 48.401909 -1.250621 -3.713028 -10.210484 2.314524 0.787533 
-0.543702 44.056076 -5.640683 12.678400 -1.162360 12.502100 -16.728500 -3.166770 -8.822000 15.859400 0.068130 -4.693100 -6.195230 -14.774900 15.923500 4.459720 -1.895510 7.486010 2.000000 -2.000000 0.000000 105.959999 -162.738007 1.388240 58.799301 -0.285674 0.116995 0.050010 -0.041183 -151.794998 -2.000000 2.000000 0.000000 73.498802 -13.024700 148.692001 -94.990700 0.203805 0.116713 -0.133022 0.138007 163.742004 -16.444841 -5.649077 8.478330 43.859451 1.895848 3.233650 -8.835117 -5.188423 -1.526661 -36.249374 5.270321 -1.197304 46.183586 -1.365156 -3.580131 -12.606388 0.933282 0.498747 
-0.709007 43.636829 -5.228065 12.661800 -1.686500 14.337800 -16.969801 -3.030190 -8.874300 16.122900 -0.399193 -4.666310 -5.214950 -14.524500 15.314700 4.635820 -1.768870 7.286270 2.000000 -2.000000 0.000000 103.336998 -168.520996 2.380730 53.906700 -0.295389 0.110530 0.049706 -0.040019 -151.365005 -2.000000 2.000000 0.000000 74.483597 -15.266600 146.606995 -96.367599 0.200769 0.116411 -0.134983 0.139151 162.932007 -21.023079 -4.065227 9.199740 53.365448 1.343453 3.765249 -5.835828 -3.327412 -0.863576 -34.551464 5.468646 -2.346007 44.154510 -1.424684 -3.491079 -16.332148 -0.783649 -0.090819 
